<svg width="411" height="411" viewBox="0 0 411 411" fill="none" xmlns="http://www.w3.org/2000/svg">
<path fill-rule="evenodd" clip-rule="evenodd" d="M357.334 343.017C390.242 306.7 410.291 258.514 410.291 205.645C410.291 92.6228 318.668 1 205.645 1C92.6228 1 1 92.6228 1 205.645C1 257.598 20.3592 305.029 52.2572 341.118C52.075 337.931 52 334.891 52 332.062C52 328.536 52 321.484 54.3536 319.135C54.3536 294.152 79.4916 292.129 100.747 290.419C103.397 290.205 105.987 289.997 108.46 289.75C144.541 282.542 166.846 273.833 146.101 242.737C141.876 236.405 136.524 229.752 131.06 222.958C117.744 206.403 103.756 189.013 103.756 173.395C103.756 165.605 107.091 160.657 110.374 155.784C113.557 151.06 116.692 146.408 116.692 139.309C116.692 134.968 115.577 130.341 114.445 125.644C112.686 118.347 110.886 110.879 113.164 104.049C120.383 82.4063 156.92 48.7506 175.506 44.1068C200.203 37.9363 231.57 41.0991 248.434 52.333C257.032 58.0609 265.032 60.5091 271.907 62.6132C286.086 66.9528 295.483 69.8285 295.483 96.9969C295.483 102.636 295.319 108.571 295.153 114.602C294.612 134.27 294.043 154.974 299.011 169.869C303.126 199.202 288.78 214.209 276.68 226.867C272.638 231.095 268.847 235.061 266.078 239.211C245.272 270.395 272.112 282.698 296.658 282.698C321.387 282.698 359 301.456 359 323.836C359 330.768 358.426 337.138 357.334 343.017Z" fill="white"/>
<path d="M205.459 409.598C318.205 409.598 409.604 318.199 409.604 205.453C409.604 92.7069 318.205 1.30811 205.459 1.30811C92.7128 1.30811 1.31396 92.7069 1.31396 205.453C1.31396 318.199 92.7128 409.598 205.459 409.598Z" stroke="white"/>
</svg>
